<svg xmlns="http://www.w3.org/2000/svg" viewBox="0 0 32 32">
  <rect width="32" height="32" rx="6.5" fill="#8345dd"/>
  <g transform="translate(6.05 5.74) scale(1.14)" fill="#ffffff">
    <path fill-rule="evenodd" clip-rule="evenodd" d="M17.4673 7.41883C17.4673 3.41043 14.2474 0.148438 10.2908 0.148438C8.2136 0.148438 6.25874 1.04901 4.89282 2.62761C4.8082 2.72546 4.7005 2.79994 4.57998 2.8467C3.93889 3.09522 2.9824 3.67973 2.27808 4.39327C0.797617 5.8922 -0.0109978 7.88648 0.000112995 10.008C0.0112238 12.1287 0.84206 14.1143 2.33963 15.5985C3.80726 17.0533 5.73647 17.8534 7.77682 17.8534C7.7913 17.8534 7.80672 17.8534 7.82131 17.8534C9.87704 17.8422 11.8147 17.0187 13.2781 15.5371C13.9713 14.8348 14.2867 14.193 14.6363 13.3358C14.6876 13.2094 14.7714 13.0994 14.8757 13.012C16.5254 11.6238 17.4673 9.59844 17.4673 7.42062V7.41883ZM14.3407 2.87701C14.5047 2.87701 14.6389 3.01295 14.6389 3.18008L14.6423 13.0024C14.6423 13.057 14.6176 13.1081 14.5748 13.1409C13.3328 14.0978 11.8532 14.6036 10.2898 14.6036C6.37926 14.6036 3.19866 11.3805 3.19866 7.41978C3.19866 5.78569 3.75255 4.19237 4.76119 2.92116C4.79367 2.8796 4.84325 2.85623 4.89539 2.85623L14.3407 2.87701Z"/>
  </g>
</svg>
